<svg xmlns="http://www.w3.org/2000/svg" width="40" height="28" viewBox="0 0 48 33.547"><path d="M47.005,10.6a6.016,6.016,0,0,0-4.178-4.178c-3.741-1-18.8-1-18.8-1s-15.02-.02-18.8,1A6.016,6.016,0,0,0,1.052,10.6,62.517,62.517,0,0,0,.008,22.218a62.517,62.517,0,0,0,1.044,11.57A6.016,6.016,0,0,0,5.23,37.966c3.737,1,18.8,1,18.8,1s15.018,0,18.8-1a6.016,6.016,0,0,0,4.178-4.178,62.518,62.518,0,0,0,1-11.57A62.517,62.517,0,0,0,47.005,10.6ZM19.223,29.4V15.012l12.533,7.207Z" transform="translate(-0.007 -5.424)" fill="#272727"/></svg>